<svg width="56" height="57" viewBox="0 0 56 57" fill="none" xmlns="http://www.w3.org/2000/svg">
<path fill-rule="evenodd" clip-rule="evenodd" d="M17 18.8971C17 18.4096 17.1936 17.9421 17.5383 17.5974C17.883 17.2527 18.3505 17.0591 18.838 17.0591H37.16C37.4016 17.0587 37.6409 17.1059 37.8641 17.1982C38.0874 17.2904 38.2903 17.4257 38.4612 17.5964C38.6322 17.7671 38.7677 17.9699 38.8602 18.1931C38.9526 18.4163 39.0001 18.6555 39 18.8971V37.2191C39.0003 37.4607 38.9529 37.7 38.8606 37.9233C38.7683 38.1466 38.6328 38.3495 38.462 38.5204C38.2912 38.6913 38.0884 38.8268 37.8651 38.9193C37.6419 39.0117 37.4026 39.0592 37.161 39.0591H18.838C18.5965 39.0591 18.3575 39.0115 18.1344 38.9191C17.9113 38.8266 17.7087 38.6912 17.538 38.5204C17.3673 38.3496 17.2319 38.1469 17.1396 37.9238C17.0473 37.7007 16.9999 37.4615 17 37.2201V18.8971ZM25.708 25.4471H28.687V26.9431C29.117 26.0831 30.217 25.3091 31.87 25.3091C35.039 25.3091 35.79 27.0221 35.79 30.1651V35.9871H32.583V30.8811C32.583 29.0911 32.153 28.0811 31.061 28.0811C29.546 28.0811 28.916 29.1701 28.916 30.8811V35.9871H25.708V25.4471ZM20.208 35.8501H23.416V25.3091H20.208V35.8491V35.8501ZM23.875 21.8711C23.881 22.1458 23.8322 22.4189 23.7312 22.6744C23.6303 22.9299 23.4794 23.1627 23.2872 23.3591C23.0951 23.5555 22.8657 23.7116 22.6125 23.8181C22.3592 23.9246 22.0872 23.9795 21.8125 23.9795C21.5378 23.9795 21.2658 23.9246 21.0125 23.8181C20.7593 23.7116 20.5299 23.5555 20.3378 23.3591C20.1456 23.1627 19.9947 22.9299 19.8938 22.6744C19.7928 22.4189 19.744 22.1458 19.75 21.8711C19.7619 21.3319 19.9844 20.8189 20.3699 20.4418C20.7554 20.0647 21.2732 19.8535 21.8125 19.8535C22.3518 19.8535 22.8696 20.0647 23.2551 20.4418C23.6406 20.8189 23.8631 21.3319 23.875 21.8711Z" fill="#FAFAFA"/>
</svg>
