<svg width="69" height="85" viewBox="0 0 69 85" fill="none" xmlns="http://www.w3.org/2000/svg">
<path d="M51.0164 0.483109C50.8372 0.282878 44.3824 0.562148 38.7654 6.65866C33.1484 12.7499 34.0125 19.7369 34.139 19.9161C34.2655 20.0952 42.1483 20.3745 47.1804 13.2874C52.2125 6.20023 51.1955 0.688609 51.0164 0.483109ZM68.4786 62.3071C68.2257 61.8012 56.2277 55.8048 57.3447 44.2757C58.4618 32.7414 66.1707 29.5798 66.2919 29.2373C66.4131 28.8948 63.1462 25.0746 59.6843 23.1408C57.1425 21.7774 54.3293 20.9963 51.4485 20.854C50.8794 20.8382 48.9034 20.3534 44.8408 21.4652C42.1641 22.1976 36.1308 24.5688 34.471 24.6636C32.8059 24.7585 27.8528 21.9131 22.5256 21.1596C19.1164 20.5009 15.5017 21.8499 12.9145 22.8879C10.3326 23.9207 5.42166 26.8609 1.98611 34.6752C-1.44943 42.4842 0.347379 54.8564 1.63307 58.7029C2.91877 62.5442 4.92635 68.8409 8.34081 73.4357C11.3759 78.6206 15.4016 82.2195 17.0825 83.442C18.7634 84.6645 23.5057 85.4759 26.7937 83.795C29.4388 82.1721 34.2128 81.2395 36.0992 81.308C37.9803 81.3764 41.6898 82.1194 45.4889 84.1481C48.4977 85.1861 51.3431 84.754 54.1937 83.5948C57.0444 82.4303 61.1702 78.0147 65.9863 69.0622C67.8147 64.8996 68.6473 62.6496 68.4786 62.3071Z" fill="white"/>
</svg>
