<svg width="56" height="57" viewBox="0 0 56 57" fill="none" xmlns="http://www.w3.org/2000/svg">
<g clip-path="url(#clip0_17_586)">
<path d="M29.5375 28.0591C29.5375 31.7866 26.5075 34.8091 22.768 34.8091C21.8804 34.8103 21.0012 34.6366 20.1808 34.298C19.3603 33.9595 18.6145 33.4626 17.986 32.8358C17.3576 32.209 16.8587 31.4646 16.5179 30.645C16.1772 29.8254 16.0012 28.9467 16 28.0591C16 24.3301 19.03 21.3091 22.768 21.3091C23.6557 21.3077 24.535 21.4812 25.3557 21.8197C26.1764 22.1582 26.9223 22.655 27.5509 23.2819C28.1796 23.9087 28.6786 24.6532 29.0194 25.4729C29.3603 26.2926 29.5363 27.1714 29.5375 28.0591ZM36.9625 28.0591C36.9625 31.5691 35.4475 34.4131 33.5785 34.4131C31.7095 34.4131 30.1945 31.5676 30.1945 28.0591C30.1945 24.5491 31.7095 21.7051 33.5785 21.7051C35.4475 21.7051 36.9625 24.5506 36.9625 28.0591ZM40 28.0591C40 31.2031 39.4675 33.7516 38.809 33.7516C38.152 33.7516 37.6195 31.2016 37.6195 28.0591C37.6195 24.9151 38.152 22.3666 38.8105 22.3666C39.4675 22.3666 40 24.9151 40 28.0591Z" fill="#FAFAFA"/>
</g>
<defs>
<clipPath id="clip0_17_586">
<rect width="24" height="24" fill="white" transform="translate(16 16.0591)"/>
</clipPath>
</defs>
</svg>
